0
SECTION
2
HEADER
9
$INSUNITS
70
1
9
$ACADVER
1
AC1014
9
$HANDSEED
5
FFFF
0
ENDSEC
0
SECTION
2
TABLES
0
TABLE
2
VPORT
5
8
100
AcDbSymbolTable
0
ENDTAB
0
TABLE
2
LTYPE
5
5
100
AcDbSymbolTable
0
LTYPE
5
14
100
AcDbSymbolTableRecord
100
AcDbLinetypeTableRecord
2
BYBLOCK
70
0
0
LTYPE
5
15
100
AcDbSymbolTableRecord
100
AcDbLinetypeTableRecord
2
BYLAYER
70
0
0
ENDTAB
0
TABLE
2
LAYER
5
2
100
AcDbSymbolTable
70
2
0
LAYER
5
50
100
AcDbSymbolTableRecord
100
AcDbLayerTableRecord
2
0
70
0
6
CONTINUOUS
0
ENDTAB
0
TABLE
2
STYLE
5
3
100
AcDbSymbolTable
70
1
0
STYLE
5
11
100
AcDbSymbolTableRecord
100
AcDbTextStyleTableRecord
2
STANDARD
70
0
0
ENDTAB
0
TABLE
2
VIEW
5
6
100
AcDbSymbolTable
70
0
0
ENDTAB
0
TABLE
2
UCS
5
7
100
AcDbSymbolTable
70
0
0
ENDTAB
0
TABLE
2
APPID
5
9
100
AcDbSymbolTable
70
2
0
APPID
5
12
100
AcDbSymbolTableRecord
100
AcDbRegAppTableRecord
2
ACAD
70
0
0
ENDTAB
0
TABLE
2
DIMSTYLE
5
A
100
AcDbSymbolTable
70
1
0
ENDTAB
0
TABLE
2
BLOCK_RECORD
5
1
100
AcDbSymbolTable
70
1
0
BLOCK_RECORD
5
1F
100
AcDbSymbolTableRecord
100
AcDbBlockTableRecord
2
*MODEL_SPACE
0
BLOCK_RECORD
5
1B
100
AcDbSymbolTableRecord
100
AcDbBlockTableRecord
2
*PAPER_SPACE
0
ENDTAB
0
ENDSEC
0
SECTION
2
BLOCKS
0
BLOCK
5
20
100
AcDbEntity
100
AcDbBlockBegin
2
*MODEL_SPACE
0
ENDBLK
5
21
100
AcDbEntity
100
AcDbBlockEnd
0
BLOCK
5
1C
100
AcDbEntity
100
AcDbBlockBegin
2
*PAPER_SPACE
0
ENDBLK
5
1D
100
AcDbEntity
100
AcDbBlockEnd
0
ENDSEC
0
SECTION
2
ENTITIES
0
CIRCLE
5
100
100
AcDbEntity
8
0
100
AcDbCircle
10
-0.12947174146211129
20
-4.7244094488188972
30
0
40
0.078740157480314668
0
CIRCLE
5
101
100
AcDbEntity
8
0
100
AcDbCircle
10
-0.12947174146211129
20
-1.9685039370078745
30
0
40
0.078740157480315029
0
LWPOLYLINE
5
102
100
AcDbEntity
8
0
100
AcDbPolyline
90
8
70
1
43
0.0
10
-0.35078356601170563
20
-5.6461585784897279
10
-1.0745936569900625
20
-6.3699686694680819
42
0.41421356237309415
10
-1.074593656990062
20
-6.4813240680801369
10
-0.35078356601170546
20
-7.205134159058491
42
0.4142135623730962
10
-0.23942816739965053
20
-7.205134159058491
10
0.4843819235787038
20
-6.4813240680801396
42
0.41421356237309387
10
0.48438192357870391
20
-6.3699686694680855
10
-0.23942816739965075
20
-5.6461585784897279
42
0.41421356237309603
0
LWPOLYLINE
5
103
100
AcDbEntity
8
0
100
AcDbPolyline
90
8
70
1
43
0.0
10
-7.1772970759001238
20
-0.32294976306437168
10
-6.453486984921768
20
-1.0467598540427288
42
0.41421356237309509
10
-6.342131586309713
20
-1.0467598540427292
10
-5.6183214953313572
20
-0.32294976306437478
42
0.41421356237309725
10
-5.6183214953313572
20
-0.21159436445231947
10
-6.342131586309713
20
0.51221572652603409
42
0.4142135623730902
10
-6.453486984921768
20
0.51221572652603531
10
-7.1772970759001238
20
-0.21159436445231689
42
0.41421356237309587
0
LWPOLYLINE
5
104
100
AcDbEntity
8
0
100
AcDbPolyline
90
8
70
1
43
0.0
10
-0.32294812295885222
20
0.48438028347318374
10
-1.0467582139372087
20
-0.23942980750517034
42
0.41421356237309526
10
-1.0467582139372087
20
-0.35078520611722491
10
-0.32294812295885494
20
-1.0745952970955819
42
0.41421356237309576
10
-0.21159272434680002
20
-1.0745952970955821
10
0.51221736663155393
20
-0.35078520611722563
42
0.41421356237309476
10
0.51221736663155448
20
-0.23942980750517087
10
-0.21159272434679738
20
0.48438028347318385
42
0.4142135623730962
0
LWPOLYLINE
5
105
100
AcDbEntity
8
0
100
AcDbPolyline
90
24
70
1
43
0.0
10
-1.2507697882559277
20
0.057656145435718738
10
-0.23942816739964878
20
1.0689977662919925
10
1.0689977662919934
20
-0.23942816739964931
10
0.057656145435718342
20
-1.250769788255935
42
0.19891236737965726
10
0
20
-1.3899640365210033
10
0
20
-5.3029493493057798
42
0.19891236737965864
10
0.057656145435719258
20
-5.4421435975708485
10
1.0689977662919925
20
-6.4534852184271214
10
-0.23942816739964931
20
-7.7619111521187651
10
-1.2507697882559234
20
-6.7505695312624905
42
0.19891236737965851
10
-1.389964036520992
20
-6.6929133858267713
10
-5.3029493493057833
20
-6.6929133858267713
42
0.19891236737965931
10
-5.4421435975708512
20
-6.7505695312624914
10
-6.4534852184271232
20
-7.7619111521187634
10
-7.7619111521187651
20
-6.4534852184271214
10
-6.7505695312624905
20
-5.442143597570845
42
0.19891236737965892
10
-6.6929133858267713
20
-5.3029493493057762
10
-6.6929133858267713
20
-1.3899640365209951
42
0.19891236737965684
10
-6.7505695312624905
20
-1.2507697882559283
10
-7.7619111521187634
20
-0.23942816739964931
10
-6.4534852184271214
20
1.0689977662919925
10
-5.4421435975708468
20
0.05765614543571889
42
0.19891236737965765
10
-5.3029493493057789
20
0
10
-1.3899640365209962
20
8.7419135797256413e-17
42
0.19891236737965787
0
CIRCLE
5
106
100
AcDbEntity
8
0
100
AcDbCircle
10
-0.29510586670567707
20
0.84628696906788348
30
0
40
0.078740157480314932
0
CIRCLE
5
107
100
AcDbEntity
8
0
100
AcDbCircle
10
-1.4086598528262264
20
-6.4256463687741094
30
0
40
0.078740157480314849
0
CIRCLE
5
108
100
AcDbEntity
8
0
100
AcDbCircle
10
0.84628696906788348
20
-6.3978075191210948
30
0
40
0.078740157480314932
0
CIRCLE
5
109
100
AcDbEntity
8
0
100
AcDbCircle
10
-1.4086598528262253
20
-0.26726701705266293
30
0
40
0.078740157480314849
0
CIRCLE
5
110
100
AcDbEntity
8
0
100
AcDbCircle
10
-5.2842535330005465
20
-6.4256463687741068
30
0
40
0.078740157480314668
0
CIRCLE
5
111
100
AcDbEntity
8
0
100
AcDbCircle
10
-0.26726701705266293
20
-5.2842535330005465
30
0
40
0.078740157480314807
0
CIRCLE
5
112
100
AcDbEntity
8
0
100
AcDbCircle
10
-0.26726701705266209
20
-1.4086598528262264
30
0
40
0.078740157480314932
0
CIRCLE
5
113
100
AcDbEntity
8
0
100
AcDbCircle
10
-7.539200354894656
20
-6.3978075191210921
30
0
40
0.078740157480314668
0
CIRCLE
5
114
100
AcDbEntity
8
0
100
AcDbCircle
10
-5.2842535330005447
20
-0.26726701705266259
30
0
40
0.078740157480314668
0
CIRCLE
5
115
100
AcDbEntity
8
0
100
AcDbCircle
10
-6.4256463687741094
20
-5.2842535330005438
30
0
40
0.078740157480314668
0
CIRCLE
5
116
100
AcDbEntity
8
0
100
AcDbCircle
10
-6.4256463687741086
20
-1.4086598528262262
30
0
40
0.078740157480314668
0
CIRCLE
5
117
100
AcDbEntity
8
0
100
AcDbCircle
10
-7.5392003548946542
20
-0.29510586670567801
30
0
40
0.078740157480314668
0
CIRCLE
5
118
100
AcDbEntity
8
0
100
AcDbCircle
10
-6.397807519121093
20
0.84628696906788348
30
0
40
0.078740157480314668
0
CIRCLE
5
119
100
AcDbEntity
8
0
100
AcDbCircle
10
0.84628696906788414
20
-0.29510586670567795
30
0
40
0.078740157480314668
0
CIRCLE
5
120
100
AcDbEntity
8
0
100
AcDbCircle
10
-6.3978075191210948
20
-7.5392003548946542
30
0
40
0.078740157480314668
0
CIRCLE
5
121
100
AcDbEntity
8
0
100
AcDbCircle
10
-0.29510586670567795
20
-7.5392003548946542
30
0
40
0.078740157480314668
0
CIRCLE
5
122
100
AcDbEntity
8
0
100
AcDbCircle
10
-1.8023606402278012
20
-5.8350951876717474
30
0
40
0.078740157480315029
0
CIRCLE
5
123
100
AcDbEntity
8
0
100
AcDbCircle
10
-4.9212598425196843
20
-0.85781819815502502
30
0
40
0.078740157480315376
0
CIRCLE
5
124
100
AcDbEntity
8
0
100
AcDbCircle
10
-1.8023606402278012
20
-0.85781819815502502
30
0
40
0.078740157480315029
0
CIRCLE
5
125
100
AcDbEntity
8
0
100
AcDbCircle
10
-4.9212598425196843
20
-5.8350951876717474
30
0
40
0.078740157480315376
0
LWPOLYLINE
5
126
100
AcDbEntity
8
0
100
AcDbPolyline
90
4
70
1
43
0.0
10
-6.4256463687741094
20
-4.1338582677165343
10
-5.5595046364906455
20
-4.1338582677165343
10
-5.5595046364906455
20
-2.3622047244094477
10
-6.4256463687741086
20
-2.3622047244094477
0
CIRCLE
5
127
100
AcDbEntity
8
0
100
AcDbCircle
10
-6.524071565624503
20
-3.0708661417322825
30
0
40
0.049212598425196846
0
CIRCLE
5
128
100
AcDbEntity
8
0
100
AcDbCircle
10
-6.524071565624503
20
-2.440944881889763
30
0
40
0.049212598425196846
0
CIRCLE
5
129
100
AcDbEntity
8
0
100
AcDbCircle
10
-5.461079439640252
20
-3.3858267716535422
30
0
40
0.049212598425196846
0
CIRCLE
5
130
100
AcDbEntity
8
0
100
AcDbCircle
10
-5.461079439640252
20
-2.7559055118110227
30
0
40
0.049212598425196846
0
CIRCLE
5
131
100
AcDbEntity
8
0
100
AcDbCircle
10
-5.461079439640252
20
-3.0708661417322825
30
0
40
0.049212598425196846
0
CIRCLE
5
132
100
AcDbEntity
8
0
100
AcDbCircle
10
-5.461079439640252
20
-2.440944881889763
30
0
40
0.049212598425196846
0
CIRCLE
5
133
100
AcDbEntity
8
0
100
AcDbCircle
10
-6.524071565624503
20
-3.3858267716535422
30
0
40
0.049212598425196846
0
CIRCLE
5
134
100
AcDbEntity
8
0
100
AcDbCircle
10
-6.524071565624503
20
-2.7559055118110227
30
0
40
0.049212598425196846
0
LWPOLYLINE
5
135
100
AcDbEntity
8
0
100
AcDbPolyline
90
6
70
1
43
0.0
10
-3.2072629754441455
20
-1.8718920415463072
10
-1.910848789969031
20
-0.57547785607119173
42
0.66817863791929877
10
-2.0500430382340995
20
-0.23943321410533608
10
-4.6428714091843286
20
-0.23943321410533547
42
0.66817863791929943
10
-4.7820656574493965
20
-0.57547785607119128
10
-3.4856514719742817
20
-1.8718920415463074
42
0.41421356237309392
0
LWPOLYLINE
5
136
100
AcDbEntity
8
0
100
AcDbPolyline
90
6
70
1
43
0.0
10
-1.8718904014407876
20
-3.4856538169827931
10
-0.57547621596567189
20
-4.7820680024579092
42
0.66817863791929955
10
-0.23943157399981627
20
-4.6428737541928413
10
-0.23943157399981566
20
-2.0500453832426104
42
0.66817863791929943
10
-0.57547621596567144
20
-1.9108511349775423
10
-1.8718904014407876
20
-3.2072653204526569
42
0.41421356237309426
0
LWPOLYLINE
5
137
100
AcDbEntity
8
0
100
AcDbPolyline
90
6
70
1
43
0.0
10
-1.9108494948720218
20
-6.1174405764612665
10
-3.2072636803471375
20
-4.8210263909861499
42
0.41421356237309509
10
-3.4856521768772741
20
-4.8210263909861499
10
-4.7820663623523894
20
-6.1174405764612665
42
0.66817863791929888
10
-4.6428721140873215
20
-6.4534852184271214
10
-2.0500437431370901
20
-6.4534852184271214
42
0.66817863791929866
0
LWPOLYLINE
5
138
100
AcDbEntity
8
0
100
AcDbPolyline
90
12
70
1
43
0.0
10
-6.4534835783216034
20
-5.5904859258893795
10
-6.4534852184271232
20
-5.5904859258893795
10
-7.2051325189529729
20
-6.3421332264152319
42
0.41421356237309509
10
-7.2051325189529729
20
-6.453488625027286
10
-6.4534852184271232
20
-7.2051359255531384
10
-6.4534835783216034
20
-7.2051359255531384
10
-6.4534835783216034
20
-7.2051375656586583
42
0.26794919243111032
10
-6.3774264266453047
20
-7.1847581132883791
10
-5.6461569383842098
20
-6.453488625027286
42
0.41421356237309509
10
-5.6461569383842098
20
-6.3421332264152319
10
-6.3774264266452994
20
-5.610863738154138
42
0.26794919243111265
10
-6.4534835783216034
20
-5.5904842857838597
0
ENDSEC
0
SECTION
2
OBJECTS
0
DICTIONARY
5
C
100
AcDbDictionary
3
ACAD_GROUP
350
D
3
ACAD_MLINESTYLE
350
17
0
DICTIONARY
5
D
100
AcDbDictionary
0
DICTIONARY
5
1A
330
C
100
AcDbDictionary
0
DICTIONARY
5
17
100
AcDbDictionary
0
ENDSEC
0
EOF
