0
SECTION
2
HEADER
9
$INSUNITS
70
1
9
$ACADVER
1
AC1014
9
$HANDSEED
5
FFFF
0
ENDSEC
0
SECTION
2
TABLES
0
TABLE
2
VPORT
5
8
100
AcDbSymbolTable
0
ENDTAB
0
TABLE
2
LTYPE
5
5
100
AcDbSymbolTable
0
LTYPE
5
14
100
AcDbSymbolTableRecord
100
AcDbLinetypeTableRecord
2
BYBLOCK
70
0
0
LTYPE
5
15
100
AcDbSymbolTableRecord
100
AcDbLinetypeTableRecord
2
BYLAYER
70
0
0
ENDTAB
0
TABLE
2
LAYER
5
2
100
AcDbSymbolTable
70
2
0
LAYER
5
50
100
AcDbSymbolTableRecord
100
AcDbLayerTableRecord
2
0
70
0
6
CONTINUOUS
0
ENDTAB
0
TABLE
2
STYLE
5
3
100
AcDbSymbolTable
70
1
0
STYLE
5
11
100
AcDbSymbolTableRecord
100
AcDbTextStyleTableRecord
2
STANDARD
70
0
0
ENDTAB
0
TABLE
2
VIEW
5
6
100
AcDbSymbolTable
70
0
0
ENDTAB
0
TABLE
2
UCS
5
7
100
AcDbSymbolTable
70
0
0
ENDTAB
0
TABLE
2
APPID
5
9
100
AcDbSymbolTable
70
2
0
APPID
5
12
100
AcDbSymbolTableRecord
100
AcDbRegAppTableRecord
2
ACAD
70
0
0
ENDTAB
0
TABLE
2
DIMSTYLE
5
A
100
AcDbSymbolTable
70
1
0
ENDTAB
0
TABLE
2
BLOCK_RECORD
5
1
100
AcDbSymbolTable
70
1
0
BLOCK_RECORD
5
1F
100
AcDbSymbolTableRecord
100
AcDbBlockTableRecord
2
*MODEL_SPACE
0
BLOCK_RECORD
5
1B
100
AcDbSymbolTableRecord
100
AcDbBlockTableRecord
2
*PAPER_SPACE
0
ENDTAB
0
ENDSEC
0
SECTION
2
BLOCKS
0
BLOCK
5
20
100
AcDbEntity
100
AcDbBlockBegin
2
*MODEL_SPACE
0
ENDBLK
5
21
100
AcDbEntity
100
AcDbBlockEnd
0
BLOCK
5
1C
100
AcDbEntity
100
AcDbBlockBegin
2
*PAPER_SPACE
0
ENDBLK
5
1D
100
AcDbEntity
100
AcDbBlockEnd
0
ENDSEC
0
SECTION
2
ENTITIES
0
LWPOLYLINE
5
100
100
AcDbEntity
8
0
100
AcDbPolyline
90
8
70
1
43
0.0
10
-6.291228511987768
20
-4.9529852825134144
10
-4.7403776216937654
20
-3.4021343922194123
42
0.41421356237309509
10
-4.7403776216937654
20
-3.2907789936073577
10
-4.8501999083904401
20
-3.1809567069106839
42
-0.86909524547566708
10
-5.0156023762020228
20
-3.0155542390991008
10
-6.291228511987768
20
-1.7399281033133529
42
0.66817863791929766
10
-6.4256463687741094
20
-1.7956058026193806
10
-6.4256463687741094
20
-4.8973075832073878
42
0.66817863791929888
0
LWPOLYLINE
5
101
100
AcDbEntity
8
0
100
AcDbPolyline
90
11
70
1
43
0.0
10
-1.9525357641330046
20
-3.4021343922194136
10
-0.54763395971249185
20
-4.8070361966399302
42
-0.99999999999999989
10
-0.38060086179440883
20
-4.9740692945580118
42
0.55466142349912662
10
-0.26726701705266259
20
-4.9033353620949924
10
-0.26726701705266181
20
-2.2527574700084205
10
-0.46411741075345031
20
-2.2527574700084205
42
-0.99999999999999989
10
-0.46411741075345031
20
-2.0165369975674752
10
-0.26726701705266176
20
-2.0165369975674752
10
-0.26726701705266165
20
-1.7956058026193848
42
0.66817863791929977
10
-0.40168487383900414
20
-1.7399281033133576
10
-1.9525357641330046
20
-3.290778993607359
42
0.41421356237309509
0
LWPOLYLINE
5
102
100
AcDbEntity
8
0
100
AcDbPolyline
90
4
70
1
43
0.0
10
-2.8831606285345188
20
-6.6596817460014606
10
-3.8097527572922494
20
-6.6596817460014588
10
-3.8097527572922503
20
-7.434806442974919
10
-2.8831606285345188
20
-7.4348064429749208
0
LWPOLYLINE
5
103
100
AcDbEntity
8
0
100
AcDbPolyline
90
6
70
1
43
0.0
10
-1.7956058026193815
20
-0.26726701705266259
10
-4.8973075832073851
20
-0.26726701705266037
42
0.6681786379192971
10
-4.9529852825134135
20
-0.40168487383900275
10
-3.4021343922194123
20
-1.9525357641330046
42
0.41421356237309415
10
-3.2907789936073577
20
-1.9525357641330043
10
-1.7399281033133545
20
-0.40168487383900509
42
0.66817863791929955
0
LWPOLYLINE
5
104
100
AcDbEntity
8
0
100
AcDbPolyline
90
4
70
1
43
0.0
10
-3.8097527572922507
20
-0.033231639825310633
10
-2.8831606285345202
20
-0.033231639825312034
10
-2.8831606285345197
20
0.74189305714814835
10
-3.8097527572922507
20
0.74189305714814968
0
LWPOLYLINE
5
105
100
AcDbEntity
8
0
100
AcDbPolyline
90
10
70
1
43
0.0
10
-2.5688303671217274
20
-6.0132271877913697
10
-2.2933798973157411
20
-5.7377767179853842
10
-3.2907789936073581
20
-4.7403776216937663
42
0.41421356237309509
10
-3.4021343922194123
20
-4.7403776216937672
10
-4.9529852825134153
20
-6.2912285119877662
42
0.66817863791929888
10
-4.8973075832073878
20
-6.4256463687741094
10
-1.7956058026193831
20
-6.4256463687741112
42
0.66817863791929888
10
-1.7399281033133558
20
-6.2912285119877689
10
-2.1265499476679
20
-5.9046066676332245
10
-2.4078220337181242
20
-6.1858787536834496
42
-1.0355041734955428
0
LWPOLYLINE
5
106
100
AcDbEntity
8
0
100
AcDbPolyline
90
4
70
1
43
0.0
10
-0.033231639825312034
20
-2.8831606285345193
10
-0.033231639825312034
20
-3.8097527572922503
10
0.74189305714814835
20
-3.8097527572922503
10
0.74189305714814835
20
-2.8831606285345193
0
LWPOLYLINE
5
107
100
AcDbEntity
8
0
100
AcDbPolyline
90
4
70
1
43
0.0
10
-6.6596817460014588
20
-3.8097527572922525
10
-6.6596817460014588
20
-2.8831606285345215
10
-7.434806442974919
20
-2.8831606285345215
10
-7.434806442974919
20
-3.8097527572922525
0
CIRCLE
5
108
100
AcDbEntity
8
0
100
AcDbCircle
10
-0.46411741075345031
20
-4.8905527455989715
30
0
40
0.059055118110236095
0
CIRCLE
5
109
100
AcDbEntity
8
0
100
AcDbCircle
10
-2.0389205603597493
20
-4.8905527455989715
30
0
40
0.059055118110236358
0
CIRCLE
5
110
100
AcDbEntity
8
0
100
AcDbCircle
10
-0.46411741075345031
20
-2.1346472337879479
30
0
40
0.059055118110236358
0
CIRCLE
5
111
100
AcDbEntity
8
0
100
AcDbCircle
10
-2.0389205603597493
20
-2.1346472337879479
30
0
40
0.059055118110236358
0
CIRCLE
5
112
100
AcDbEntity
8
0
100
AcDbCircle
10
-2.491338582677165
20
-6.1023622047244093
30
0
40
0.059055118110236358
0
CIRCLE
5
113
100
AcDbEntity
8
0
100
AcDbCircle
10
-4.9212598425196843
20
-6.1023622047244093
30
0
40
0.059055118110236358
0
CIRCLE
5
114
100
AcDbEntity
8
0
100
AcDbCircle
10
-2.491338582677165
20
-3.0866141732283467
30
0
40
0.059055118110236005
0
CIRCLE
5
115
100
AcDbEntity
8
0
100
AcDbCircle
10
-4.9212598425196843
20
-3.0866141732283463
30
0
40
0.059055118110236358
0
CIRCLE
5
116
100
AcDbEntity
8
0
100
AcDbCircle
10
-6.1850393700787398
20
-0.24291338582677058
30
0
40
0.068897637795275163
0
CIRCLE
5
117
100
AcDbEntity
8
0
100
AcDbCircle
10
-6.1850393700787398
20
-6.4429133858267695
30
0
40
0.068897637795275163
0
CIRCLE
5
118
100
AcDbEntity
8
0
100
AcDbCircle
10
-0.98503937007873998
20
-6.4429133858267695
30
0
40
0.068897637795275163
0
CIRCLE
5
119
100
AcDbEntity
8
0
100
AcDbCircle
10
-0.085039370078739435
20
-0.24291338582677058
30
0
40
0.068897637795275565
0
CIRCLE
5
120
100
AcDbEntity
8
0
100
AcDbCircle
10
-6.9963459156541052
20
-6.9963427866608825
30
0
40
0.11811023622047272
0
CIRCLE
5
121
100
AcDbEntity
8
0
100
AcDbCircle
10
0.30342940083411279
20
0.30342627184089999
30
0
40
0.11811023622047236
0
CIRCLE
5
122
100
AcDbEntity
8
0
100
AcDbCircle
10
-6.9963427866608878
20
0.30342940083411685
30
0
40
0.11811023622047272
0
CIRCLE
5
123
100
AcDbEntity
8
0
100
AcDbCircle
10
0.30342627184089438
20
-6.9963459156540999
30
0
40
0.11811023622047236
0
CIRCLE
5
124
100
AcDbEntity
8
0
100
AcDbCircle
10
-3.9370078740157455
20
-7.3228346456692917
30
0
40
0.049212598425196846
0
CIRCLE
5
125
100
AcDbEntity
8
0
100
AcDbCircle
10
-2.7559055118110214
20
-6.7716535433070861
30
0
40
0.049212598425196846
0
CIRCLE
5
126
100
AcDbEntity
8
0
100
AcDbCircle
10
-2.7559055118110214
20
-7.3228346456692917
30
0
40
0.049212598425196846
0
CIRCLE
5
127
100
AcDbEntity
8
0
100
AcDbCircle
10
-3.9370078740157455
20
-6.7716535433070861
30
0
40
0.049212598425196846
0
CIRCLE
5
128
100
AcDbEntity
8
0
100
AcDbCircle
10
0.62992125984251945
20
-3.9370078740157455
30
0
40
0.049212598425196936
0
CIRCLE
5
129
100
AcDbEntity
8
0
100
AcDbCircle
10
0.078740157480315015
20
-2.7559055118110214
30
0
40
0.04921259842519686
0
CIRCLE
5
130
100
AcDbEntity
8
0
100
AcDbCircle
10
0.078740157480314751
20
-3.9370078740157455
30
0
40
0.04921259842519677
0
CIRCLE
5
131
100
AcDbEntity
8
0
100
AcDbCircle
10
0.62992125984251979
20
-2.7559055118110214
30
0
40
0.049212598425196756
0
CIRCLE
5
132
100
AcDbEntity
8
0
100
AcDbCircle
10
-6.771653543307087
20
-2.7559055118110249
30
0
40
0.049212598425196846
0
CIRCLE
5
133
100
AcDbEntity
8
0
100
AcDbCircle
10
-7.3228346456692917
20
-2.7559055118110249
30
0
40
0.049212598425196846
0
CIRCLE
5
134
100
AcDbEntity
8
0
100
AcDbCircle
10
-6.771653543307087
20
-3.937007874015749
30
0
40
0.049212598425196846
0
CIRCLE
5
135
100
AcDbEntity
8
0
100
AcDbCircle
10
-7.3228346456692917
20
-3.937007874015749
30
0
40
0.049212598425196846
0
CIRCLE
5
136
100
AcDbEntity
8
0
100
AcDbCircle
10
-2.7559055118110254
20
0.62992125984251957
30
0
40
0.049212598425196846
0
CIRCLE
5
137
100
AcDbEntity
8
0
100
AcDbCircle
10
-3.9370078740157499
20
0.62992125984251957
30
0
40
0.049212598425196846
0
CIRCLE
5
138
100
AcDbEntity
8
0
100
AcDbCircle
10
-2.7559055118110254
20
0.078740157480314835
30
0
40
0.049212598425196846
0
CIRCLE
5
139
100
AcDbEntity
8
0
100
AcDbCircle
10
-3.9370078740157499
20
0.078740157480314835
30
0
40
0.049212598425196846
0
CIRCLE
5
140
100
AcDbEntity
8
0
100
AcDbCircle
10
-0.29510586670567795
20
-7.5392003548946542
30
0
40
0.078740157480314668
0
CIRCLE
5
141
100
AcDbEntity
8
0
100
AcDbCircle
10
-6.3978075191210948
20
-7.5392003548946542
30
0
40
0.078740157480314668
0
CIRCLE
5
142
100
AcDbEntity
8
0
100
AcDbCircle
10
0.84628696906788414
20
-0.29510586670567795
30
0
40
0.078740157480314668
0
CIRCLE
5
143
100
AcDbEntity
8
0
100
AcDbCircle
10
-6.397807519121093
20
0.84628696906788348
30
0
40
0.078740157480314668
0
CIRCLE
5
144
100
AcDbEntity
8
0
100
AcDbCircle
10
-7.5392003548946542
20
-0.29510586670567801
30
0
40
0.078740157480314668
0
CIRCLE
5
145
100
AcDbEntity
8
0
100
AcDbCircle
10
-6.4256463687741086
20
-1.4086598528262262
30
0
40
0.078740157480314668
0
CIRCLE
5
146
100
AcDbEntity
8
0
100
AcDbCircle
10
-6.4256463687741094
20
-5.2842535330005438
30
0
40
0.078740157480314668
0
CIRCLE
5
147
100
AcDbEntity
8
0
100
AcDbCircle
10
-5.2842535330005447
20
-0.26726701705266259
30
0
40
0.078740157480314668
0
CIRCLE
5
148
100
AcDbEntity
8
0
100
AcDbCircle
10
-7.539200354894656
20
-6.3978075191210921
30
0
40
0.078740157480314668
0
CIRCLE
5
149
100
AcDbEntity
8
0
100
AcDbCircle
10
-0.26726701705266209
20
-1.4086598528262264
30
0
40
0.078740157480314932
0
CIRCLE
5
150
100
AcDbEntity
8
0
100
AcDbCircle
10
-0.26726701705266293
20
-5.2842535330005465
30
0
40
0.078740157480314807
0
CIRCLE
5
151
100
AcDbEntity
8
0
100
AcDbCircle
10
-5.2842535330005465
20
-6.4256463687741068
30
0
40
0.078740157480314668
0
CIRCLE
5
152
100
AcDbEntity
8
0
100
AcDbCircle
10
-1.4086598528262253
20
-0.26726701705266293
30
0
40
0.078740157480314849
0
CIRCLE
5
153
100
AcDbEntity
8
0
100
AcDbCircle
10
0.84628696906788348
20
-6.3978075191210948
30
0
40
0.078740157480314932
0
CIRCLE
5
154
100
AcDbEntity
8
0
100
AcDbCircle
10
-1.4086598528262264
20
-6.4256463687741094
30
0
40
0.078740157480314849
0
CIRCLE
5
155
100
AcDbEntity
8
0
100
AcDbCircle
10
-0.29510586670567707
20
0.84628696906788348
30
0
40
0.078740157480314932
0
LWPOLYLINE
5
156
100
AcDbEntity
8
0
100
AcDbPolyline
90
48
70
1
43
0.0
10
0.86614173228346458
20
-2.4803149606299191
10
0.86614173228346425
20
-4.2125984251968482
10
0.3937007874015751
20
-4.2125984251968474
42
0.4142135623730952
10
0
20
-4.6062992125984223
10
0
20
-5.3029493493057798
42
0.19891236737965864
10
0.057656145435719258
20
-5.4421435975708485
10
1.0689977662919925
20
-6.4534852184271214
10
-0.23942816739964931
20
-7.7619111521187651
10
-1.2507697882559234
20
-6.7505695312624905
42
0.19891236737965851
10
-1.389964036520992
20
-6.6929133858267713
10
-2.0866141732283445
20
-6.6929133858267713
42
0.41421356237309509
10
-2.4803149606299191
20
-7.0866141732283463
10
-2.4803149606299191
20
-7.559055118110237
10
-4.2125984251968482
20
-7.5590551181102352
10
-4.2125984251968474
20
-7.0866141732283463
42
0.41421356237309509
10
-4.6062992125984223
20
-6.6929133858267713
10
-5.3029493493057833
20
-6.6929133858267713
42
0.19891236737965931
10
-5.4421435975708512
20
-6.7505695312624914
10
-6.4534852184271232
20
-7.7619111521187634
10
-7.7619111521187651
20
-6.4534852184271214
10
-6.7505695312624905
20
-5.442143597570845
42
0.19891236737965798
10
-6.6929133858267713
20
-5.3029493493057771
10
-6.6929133858267713
20
-4.6062992125984259
42
0.41421356237309509
10
-7.0866141732283463
20
-4.2125984251968509
10
-7.559055118110237
20
-4.2125984251968509
10
-7.559055118110237
20
-2.4803149606299217
10
-7.0866141732283463
20
-2.4803149606299222
42
0.41421356237309509
10
-6.6929133858267713
20
-2.0866141732283476
10
-6.6929133858267713
20
-1.3899640365209951
42
0.19891236737965684
10
-6.7505695312624905
20
-1.2507697882559283
10
-7.7619111521187634
20
-0.23942816739964931
10
-6.4534852184271214
20
1.0689977662919925
10
-5.4421435975708468
20
0.05765614543571889
42
0.19891236737965765
10
-5.3029493493057789
20
0
10
-4.6062992125984268
20
4.3709567898628207e-17
42
0.41421356237309509
10
-4.2125984251968518
20
0.39370078740157477
10
-4.2125984251968518
20
0.86614173228346436
10
-2.4803149606299226
20
0.86614173228346436
10
-2.4803149606299231
20
0.39370078740157505
42
0.41421356237309548
10
-2.0866141732283481
20
0
10
-1.3899640365209962
20
8.7419135797256413e-17
42
0.19891236737965787
10
-1.2507697882559277
20
0.057656145435718738
10
-0.23942816739964878
20
1.0689977662919925
10
1.0689977662919934
20
-0.23942816739964931
10
0.057656145435718342
20
-1.250769788255935
42
0.19891236737965726
10
0
20
-1.3899640365210033
10
4.3709567898628207e-17
20
-2.0866141732283445
42
0.41421356237309509
10
0.39370078740157477
20
-2.4803149606299191
0
ENDSEC
0
SECTION
2
OBJECTS
0
DICTIONARY
5
C
100
AcDbDictionary
3
ACAD_GROUP
350
D
3
ACAD_MLINESTYLE
350
17
0
DICTIONARY
5
D
100
AcDbDictionary
0
DICTIONARY
5
1A
330
C
100
AcDbDictionary
0
DICTIONARY
5
17
100
AcDbDictionary
0
ENDSEC
0
EOF
